<svg xmlns="http://www.w3.org/2000/svg" viewBox="0 0 750 685">
  <rect width="750" height="685" fill="white"/>

  <!-- ============================================
       MEASUREMENT LAYER
       302 → 304 → 306 → 308 → Consumer Roles (matches fig35)
  ============================================ -->
  <rect x="15" y="15" width="720" height="175" fill="none" stroke="black" stroke-width="1" rx="4"/>
  <text x="25" y="33" font-family="Liberation Sans, Arial, Helvetica, sans-serif" font-size="13" font-weight="bold" letter-spacing="0.08em">MEASUREMENT LAYER</text>
  <text x="230" y="33" font-family="Liberation Sans, Arial, Helvetica, sans-serif" font-size="10" font-style="italic">receive, decompose, generate certificate</text>

  <!-- 302 -->
  <line x1="0" y1="87" x2="25" y2="87" stroke="black" stroke-width="1"/>
  <polygon points="21,83 21,91 29,87" fill="black"/>
  <rect x="25" y="65" width="80" height="45" fill="none" stroke="black" stroke-width="1" rx="4"/>
  <text x="65" y="85" font-family="Liberation Sans, Arial, Helvetica, sans-serif" font-size="11" font-weight="bold" text-anchor="middle">CONTEXTUAL</text>
  <text x="65" y="98" font-family="Liberation Sans, Arial, Helvetica, sans-serif" font-size="11" font-weight="bold" text-anchor="middle">INPUT</text>
  <text x="28" y="62" font-family="Liberation Sans, Arial, Helvetica, sans-serif" font-size="10" font-weight="bold">302</text>

  <!-- 302→304 -->
  <line x1="105" y1="87" x2="120" y2="87" stroke="black" stroke-width="1"/>
  <polygon points="116,83 116,91 124,87" fill="black"/>

  <!-- 304 -->
  <rect x="125" y="65" width="80" height="45" fill="none" stroke="black" stroke-width="1" rx="4"/>
  <text x="165" y="85" font-family="Liberation Sans, Arial, Helvetica, sans-serif" font-size="11" font-weight="bold" text-anchor="middle">G_R</text>
  <text x="165" y="98" font-family="Liberation Sans, Arial, Helvetica, sans-serif" font-size="10" text-anchor="middle">EventNode</text>
  <text x="128" y="62" font-family="Liberation Sans, Arial, Helvetica, sans-serif" font-size="10" font-weight="bold">304</text>

  <!-- 304→306 -->
  <line x1="205" y1="87" x2="220" y2="87" stroke="black" stroke-width="1"/>
  <polygon points="216,83 216,91 224,87" fill="black"/>

  <!-- 306 -->
  <rect x="225" y="60" width="175" height="95" fill="none" stroke="black" stroke-width="1" rx="4"/>
  <text x="312" y="80" font-family="Liberation Sans, Arial, Helvetica, sans-serif" font-size="11" font-weight="bold" text-anchor="middle">CERTIFICATE GENERATION</text>
  <text x="228" y="57" font-family="Liberation Sans, Arial, Helvetica, sans-serif" font-size="10" font-weight="bold">306</text>

  <!-- Two path sub-boxes (simplified) -->
  <rect x="233" y="90" width="78" height="28" fill="none" stroke="black" stroke-width="0.5" stroke-dasharray="3,2" rx="2"/>
  <text x="272" y="105" font-family="Liberation Sans, Arial, Helvetica, sans-serif" font-size="10" text-anchor="middle">Semantic</text>
  <text x="272" y="115" font-family="Liberation Sans, Arial, Helvetica, sans-serif" font-size="10" text-anchor="middle">Decomposition</text>

  <rect x="316" y="90" width="78" height="28" fill="none" stroke="black" stroke-width="0.5" stroke-dasharray="3,2" rx="2"/>
  <text x="355" y="105" font-family="Liberation Sans, Arial, Helvetica, sans-serif" font-size="10" text-anchor="middle">Compatibility</text>
  <text x="355" y="115" font-family="Liberation Sans, Arial, Helvetica, sans-serif" font-size="10" text-anchor="middle">Assessment</text>

  <text x="312" y="143" font-family="Liberation Sans, Arial, Helvetica, sans-serif" font-size="10" text-anchor="middle" font-weight="bold">α AND κ → typed control</text>

  <!-- 306→308 -->
  <line x1="400" y1="100" x2="420" y2="100" stroke="black" stroke-width="1"/>
  <polygon points="416,96 416,104 424,100" fill="black"/>

  <!-- 308 -->
  <rect x="425" y="60" width="155" height="95" fill="none" stroke="black" stroke-width="1.2" rx="4"/>
  <text x="502" y="83" font-family="Liberation Sans, Arial, Helvetica, sans-serif" font-size="11" font-weight="bold" text-anchor="middle">STRUCTURED</text>
  <text x="502" y="96" font-family="Liberation Sans, Arial, Helvetica, sans-serif" font-size="11" font-weight="bold" text-anchor="middle">COMPATIBILITY</text>
  <text x="502" y="109" font-family="Liberation Sans, Arial, Helvetica, sans-serif" font-size="11" font-weight="bold" text-anchor="middle">CERTIFICATE</text>
  <text x="502" y="127" font-family="Liberation Sans, Arial, Helvetica, sans-serif" font-size="10" text-anchor="middle" font-style="italic">enforcement data, not command</text>
  <text x="502" y="140" font-family="Liberation Sans, Arial, Helvetica, sans-serif" font-size="10" text-anchor="middle" font-style="italic">crypto-bound · verifiable</text>
  <text x="428" y="57" font-family="Liberation Sans, Arial, Helvetica, sans-serif" font-size="10" font-weight="bold">308</text>

  <!-- 308→Consumer Roles -->
  <line x1="580" y1="100" x2="600" y2="100" stroke="black" stroke-width="1"/>
  <polygon points="596,96 596,104 604,100" fill="black"/>

  <!-- Consumer Roles -->
  <rect x="605" y="65" width="120" height="85" fill="none" stroke="black" stroke-width="0.7" rx="4"/>
  <text x="665" y="83" font-family="Liberation Sans, Arial, Helvetica, sans-serif" font-size="10" font-weight="bold" text-anchor="middle">CONSUMER ROLES</text>
  <line x1="610" y1="87" x2="720" y2="87" stroke="black" stroke-width="0.3"/>
  <text x="665" y="100" font-family="Liberation Sans, Arial, Helvetica, sans-serif" font-size="10" text-anchor="middle">Authorization</text>
  <text x="665" y="112" font-family="Liberation Sans, Arial, Helvetica, sans-serif" font-size="10" text-anchor="middle">Interpretation</text>
  <text x="665" y="124" font-family="Liberation Sans, Arial, Helvetica, sans-serif" font-size="10" text-anchor="middle">Confirmation</text>
  <text x="665" y="140" font-family="Liberation Sans, Arial, Helvetica, sans-serif" font-size="10" text-anchor="middle" font-style="italic">each reads cert independently</text>

  <!-- 308 → down into control -->
  <line x1="502" y1="155" x2="502" y2="205" stroke="black" stroke-width="1"/>
  <polygon points="497,201 507,201 502,209" fill="black"/>

  <!-- ============================================
       CONTROL LAYER
       Gates → 326 (TYPED EXECUTION DECISION) → 332 (matches fig35)
  ============================================ -->
  <rect x="15" y="205" width="720" height="175" fill="none" stroke="black" stroke-width="1" rx="4"/>
  <text x="25" y="223" font-family="Liberation Sans, Arial, Helvetica, sans-serif" font-size="13" font-weight="bold" letter-spacing="0.08em">CONTROL LAYER</text>
  <text x="195" y="223" font-family="Liberation Sans, Arial, Helvetica, sans-serif" font-size="10" font-style="italic">evaluate certificate, issue typed decision</text>

  <!-- 310 label -->
  <text x="25" y="285" font-family="Liberation Sans, Arial, Helvetica, sans-serif" font-size="10" font-weight="bold">310</text>
  <text x="25" y="298" font-family="Liberation Sans, Arial, Helvetica, sans-serif" font-size="10" font-style="italic">Sequential</text>
  <text x="25" y="310" font-family="Liberation Sans, Arial, Helvetica, sans-serif" font-size="10" font-style="italic">Gating</text>

  <!-- Gate 1 -->
  <rect x="75" y="273" width="90" height="48" fill="none" stroke="black" stroke-width="0.8" rx="3"/>
  <text x="120" y="292" font-family="Liberation Sans, Arial, Helvetica, sans-serif" font-size="10" font-weight="bold" text-anchor="middle">GATE 1:</text>
  <text x="120" y="303" font-family="Liberation Sans, Arial, Helvetica, sans-serif" font-size="10" font-weight="bold" text-anchor="middle">Integrity</text>
  <text x="120" y="315" font-family="Liberation Sans, Arial, Helvetica, sans-serif" font-size="10" text-anchor="middle" font-style="italic">→ REJECT</text>
  <line x1="165" y1="296" x2="175" y2="296" stroke="black" stroke-width="0.8"/>
  <polygon points="171,292 171,300 179,296" fill="black"/>

  <!-- Gate 2 -->
  <rect x="180" y="273" width="90" height="48" fill="none" stroke="black" stroke-width="0.8" rx="3"/>
  <text x="225" y="292" font-family="Liberation Sans, Arial, Helvetica, sans-serif" font-size="10" font-weight="bold" text-anchor="middle">GATE 2:</text>
  <text x="225" y="303" font-family="Liberation Sans, Arial, Helvetica, sans-serif" font-size="10" font-weight="bold" text-anchor="middle">Consensus</text>
  <text x="225" y="315" font-family="Liberation Sans, Arial, Helvetica, sans-serif" font-size="10" text-anchor="middle" font-style="italic">→ BLOCK</text>
  <line x1="270" y1="296" x2="280" y2="296" stroke="black" stroke-width="0.8"/>
  <polygon points="276,292 276,300 284,296" fill="black"/>

  <!-- Gate 3 -->
  <rect x="285" y="273" width="95" height="48" fill="none" stroke="black" stroke-width="0.8" rx="3"/>
  <text x="332" y="292" font-family="Liberation Sans, Arial, Helvetica, sans-serif" font-size="10" font-weight="bold" text-anchor="middle">GATE 3:</text>
  <text x="332" y="303" font-family="Liberation Sans, Arial, Helvetica, sans-serif" font-size="10" font-weight="bold" text-anchor="middle">Admissibility</text>
  <text x="332" y="315" font-family="Liberation Sans, Arial, Helvetica, sans-serif" font-size="10" text-anchor="middle" font-style="italic">→ RE_ENCODE</text>
  <line x1="380" y1="296" x2="390" y2="296" stroke="black" stroke-width="0.8"/>
  <polygon points="386,292 386,300 394,296" fill="black"/>

  <!-- Gate 4 -->
  <rect x="395" y="273" width="90" height="48" fill="none" stroke="black" stroke-width="0.8" rx="3"/>
  <text x="440" y="292" font-family="Liberation Sans, Arial, Helvetica, sans-serif" font-size="10" font-weight="bold" text-anchor="middle">GATE 4:</text>
  <text x="440" y="303" font-family="Liberation Sans, Arial, Helvetica, sans-serif" font-size="10" font-weight="bold" text-anchor="middle">Grounding</text>
  <text x="440" y="315" font-family="Liberation Sans, Arial, Helvetica, sans-serif" font-size="10" text-anchor="middle" font-style="italic">→ REPAIR</text>

  <!-- →326 -->
  <line x1="485" y1="296" x2="495" y2="296" stroke="black" stroke-width="1"/>
  <polygon points="491,292 491,300 499,296" fill="black"/>

  <!-- 326: TYPED EXECUTION DECISION (box, not diamond) -->
  <rect x="500" y="270" width="100" height="55" fill="none" stroke="black" stroke-width="1.2" rx="3"/>
  <text x="550" y="288" font-family="Liberation Sans, Arial, Helvetica, sans-serif" font-size="10" font-weight="bold" text-anchor="middle">TYPED</text>
  <text x="550" y="300" font-family="Liberation Sans, Arial, Helvetica, sans-serif" font-size="10" font-weight="bold" text-anchor="middle">EXECUTION</text>
  <text x="550" y="312" font-family="Liberation Sans, Arial, Helvetica, sans-serif" font-size="10" font-weight="bold" text-anchor="middle">DECISION</text>
  <text x="503" y="267" font-family="Liberation Sans, Arial, Helvetica, sans-serif" font-size="10" font-weight="bold">326</text>


  <!-- 332: Audit Log -->
  <rect x="615" y="275" width="60" height="55" fill="none" stroke="black" stroke-width="0.7" rx="3"/>
  <text x="645" y="298" font-family="Liberation Sans, Arial, Helvetica, sans-serif" font-size="10" font-weight="bold" text-anchor="middle">AUDIT</text>
  <text x="645" y="312" font-family="Liberation Sans, Arial, Helvetica, sans-serif" font-size="10" font-weight="bold" text-anchor="middle">LOG</text>
  <text x="618" y="272" font-family="Liberation Sans, Arial, Helvetica, sans-serif" font-size="10" font-weight="bold">332</text>

  <!-- 326 → 330 (execute drops straight down, matches fig35) -->
  <line x1="550" y1="325" x2="550" y2="360" stroke="black" stroke-width="1"/>
  <line x1="550" y1="360" x2="640" y2="360" stroke="black" stroke-width="1"/>
  <line x1="640" y1="360" x2="640" y2="435" stroke="black" stroke-width="1"/>
  <polygon points="635,431 645,431 640,439" fill="black"/>

  <!-- ============================================
       COORDINATION LAYER
       304(G_R) ↔ 314(φ) ↔ 324(G_S) ... 330 (matches fig35)
  ============================================ -->
  <rect x="15" y="395" width="720" height="175" fill="none" stroke="black" stroke-width="1" rx="4"/>
  <text x="25" y="413" font-family="Liberation Sans, Arial, Helvetica, sans-serif" font-size="13" font-weight="bold" letter-spacing="0.08em">COORDINATION LAYER</text>
  <text x="230" y="413" font-family="Liberation Sans, Arial, Helvetica, sans-serif" font-size="10" font-style="italic">transform graphs, invoke solver</text>

  <!-- 304: G_R -->
  <rect x="45" y="435" width="110" height="65" fill="none" stroke="black" stroke-width="1" rx="4"/>
  <text x="100" y="460" font-family="Liberation Sans, Arial, Helvetica, sans-serif" font-size="11" font-weight="bold" text-anchor="middle">G_R</text>
  <text x="100" y="473" font-family="Liberation Sans, Arial, Helvetica, sans-serif" font-size="10" font-weight="bold" text-anchor="middle">REPRESENTATION</text>
  <text x="100" y="485" font-family="Liberation Sans, Arial, Helvetica, sans-serif" font-size="10" font-weight="bold" text-anchor="middle">GRAPH</text>
  <text x="48" y="432" font-family="Liberation Sans, Arial, Helvetica, sans-serif" font-size="10" font-weight="bold">304</text>

  <!-- 304 ↔ 314 bidirectional -->
  <line x1="155" y1="462" x2="200" y2="462" stroke="black" stroke-width="0.8"/>
  <polygon points="196,458 196,466 204,462" fill="black"/>
  <line x1="200" y1="472" x2="155" y2="472" stroke="black" stroke-width="0.8"/>
  <polygon points="159,468 159,476 151,472" fill="black"/>

  <!-- 314: φ-Morphism -->
  <rect x="205" y="435" width="160" height="65" fill="none" stroke="black" stroke-width="1" rx="4"/>
  <text x="285" y="458" font-family="Liberation Sans, Arial, Helvetica, sans-serif" font-size="11" font-weight="bold" text-anchor="middle">φ-MORPHISM</text>
  <text x="285" y="473" font-family="Liberation Sans, Arial, Helvetica, sans-serif" font-size="10" text-anchor="middle">Morph Operators</text>
  <text x="285" y="486" font-family="Liberation Sans, Arial, Helvetica, sans-serif" font-size="10" text-anchor="middle" font-style="italic">G_R ↔ G_S mapping</text>
  <text x="208" y="432" font-family="Liberation Sans, Arial, Helvetica, sans-serif" font-size="10" font-weight="bold">314</text>

  <!-- 314 ↔ 324 bidirectional -->
  <line x1="365" y1="462" x2="410" y2="462" stroke="black" stroke-width="0.8"/>
  <polygon points="406,458 406,466 414,462" fill="black"/>
  <line x1="410" y1="472" x2="365" y2="472" stroke="black" stroke-width="0.8"/>
  <polygon points="369,468 369,476 361,472" fill="black"/>

  <!-- 324: G_S -->
  <rect x="415" y="435" width="110" height="65" fill="none" stroke="black" stroke-width="1" rx="4"/>
  <text x="470" y="460" font-family="Liberation Sans, Arial, Helvetica, sans-serif" font-size="11" font-weight="bold" text-anchor="middle">G_S</text>
  <text x="470" y="473" font-family="Liberation Sans, Arial, Helvetica, sans-serif" font-size="10" font-weight="bold" text-anchor="middle">SOLVER GRAPH</text>
  <text x="470" y="486" font-family="Liberation Sans, Arial, Helvetica, sans-serif" font-size="10" text-anchor="middle" font-style="italic">contracts immutable</text>
  <text x="418" y="432" font-family="Liberation Sans, Arial, Helvetica, sans-serif" font-size="10" font-weight="bold">324</text>

  <!-- 330: Downstream Solver(s) -->
  <rect x="575" y="435" width="130" height="65" fill="none" stroke="black" stroke-width="1.2" rx="4"/>
  <text x="640" y="460" font-family="Liberation Sans, Arial, Helvetica, sans-serif" font-size="11" font-weight="bold" text-anchor="middle">DOWNSTREAM</text>
  <text x="640" y="475" font-family="Liberation Sans, Arial, Helvetica, sans-serif" font-size="11" font-weight="bold" text-anchor="middle">SOLVER(S)</text>
  <text x="640" y="490" font-family="Liberation Sans, Arial, Helvetica, sans-serif" font-size="10" text-anchor="middle" font-style="italic">external system(s)</text>
  <text x="578" y="432" font-family="Liberation Sans, Arial, Helvetica, sans-serif" font-size="10" font-weight="bold">330</text>


  <!-- ============================================
       LOOP 1: Morph Repair (314) — dashed
       314 bottom → down → left outside → up → into 308 bottom
  ============================================ -->
  <line x1="285" y1="500" x2="285" y2="545" stroke="black" stroke-width="1" stroke-dasharray="5,3"/>
  <line x1="285" y1="545" x2="8" y2="545" stroke="black" stroke-width="1" stroke-dasharray="5,3"/>
  <line x1="8" y1="545" x2="8" y2="197" stroke="black" stroke-width="1" stroke-dasharray="5,3"/>
  <line x1="8" y1="197" x2="502" y2="197" stroke="black" stroke-width="1" stroke-dasharray="5,3"/>
  <line x1="502" y1="197" x2="502" y2="155" stroke="black" stroke-width="1" stroke-dasharray="5,3"/>
  <polygon points="497,159 507,159 502,151" fill="black"/>
  <text x="100" y="541" font-family="Liberation Sans, Arial, Helvetica, sans-serif" font-size="10" font-weight="bold">314: MORPH REPAIR</text>

  <!-- ============================================
       LOOP 2: Agent Handoff (328) — dash-dot
       330 → down → LEFT inside coord → up into 304 bottom
       (matches fig35: stays inside coordination layer)
  ============================================ -->
  <line x1="640" y1="500" x2="640" y2="525" stroke="black" stroke-width="1" stroke-dasharray="12,4,2,4"/>
  <line x1="640" y1="525" x2="100" y2="525" stroke="black" stroke-width="1" stroke-dasharray="12,4,2,4"/>
  <line x1="100" y1="525" x2="100" y2="500" stroke="black" stroke-width="1" stroke-dasharray="12,4,2,4"/>
  <polygon points="95,504 105,504 100,496" fill="black"/>
  <text x="375" y="521" font-family="Liberation Sans, Arial, Helvetica, sans-serif" font-size="10" font-weight="bold">328: AGENT HANDOFF</text>

  <!-- ============================================
       EXIT — External System(s)
  ============================================ -->
  <line x1="640" y1="500" x2="640" y2="585" stroke="black" stroke-width="1"/>
  <polygon points="635,581 645,581 640,589" fill="black"/>

  <rect x="545" y="595" width="190" height="40" fill="none" stroke="black" stroke-width="1" rx="4"/>
  <text x="640" y="620" font-family="Liberation Sans, Arial, Helvetica, sans-serif" font-size="12" font-weight="bold" text-anchor="middle">EXTERNAL SYSTEM(S)</text>

  <!-- Footer -->

</svg>
