<svg xmlns="http://www.w3.org/2000/svg" viewBox="0 0 780 730">
  <rect width="780" height="730" fill="white"/>

  <defs>
    <clipPath id="landauer-clip">
      <polygon points="110,310 566,226 566,247 110,331"/>
    </clipPath>
    <clipPath id="legend-clip">
      <rect x="110" y="653" width="45" height="14"/>
    </clipPath>
  </defs>

  <!-- Axes -->
  <line x1="110" y1="520" x2="680" y2="520" stroke="black" stroke-width="2.5"/>
  <polygon points="675,514 675,526 688,520" fill="black"/>
  <line x1="110" y1="520" x2="110" y2="50" stroke="black" stroke-width="2.5"/>
  <polygon points="104,55 116,55 110,42" fill="black"/>

  <!-- Y-axis label with source -->
  <text x="50" y="300" font-family="Liberation Sans, Arial, Helvetica, sans-serif" font-size="18" font-weight="bold" text-anchor="middle" transform="rotate(-90 50 300)">κ_gate →</text>
  <text x="22" y="300" font-family="Liberation Sans, Arial, Helvetica, sans-serif" font-size="11" font-style="italic" text-anchor="middle" transform="rotate(-90 22 300)">from Compatibility Assessment (Path 2)</text>

  <!-- X-axis label with source -->
  <text x="395" y="580" font-family="Liberation Sans, Arial, Helvetica, sans-serif" font-size="18" font-weight="bold" text-anchor="middle">σ (TURBULENCE) →</text>
  <text x="395" y="598" font-family="Liberation Sans, Arial, Helvetica, sans-serif" font-size="11" font-style="italic" text-anchor="middle">from Compatibility Assessment (Path 2)</text>

  <!-- Y-axis ticks -->
  <line x1="103" y1="520" x2="117" y2="520" stroke="black" stroke-width="1.5"/>
  <text x="95" y="525" font-family="Liberation Sans, Arial, Helvetica, sans-serif" font-size="14" text-anchor="end">0</text>

  <line x1="103" y1="310" x2="117" y2="310" stroke="black" stroke-width="1.5"/>
  <text x="95" y="315" font-family="Liberation Sans, Arial, Helvetica, sans-serif" font-size="14" text-anchor="end">0.5</text>

  <line x1="103" y1="226" x2="117" y2="226" stroke="black" stroke-width="1.5"/>
  <text x="95" y="231" font-family="Liberation Sans, Arial, Helvetica, sans-serif" font-size="14" text-anchor="end">0.7</text>

  <line x1="103" y1="100" x2="117" y2="100" stroke="black" stroke-width="1.5"/>
  <text x="95" y="105" font-family="Liberation Sans, Arial, Helvetica, sans-serif" font-size="14" text-anchor="end">1.0</text>

  <!-- X-axis ticks -->
  <text x="110" y="545" font-family="Liberation Sans, Arial, Helvetica, sans-serif" font-size="14" text-anchor="middle">0</text>
  <line x1="338" y1="514" x2="338" y2="526" stroke="black" stroke-width="1.5"/>
  <text x="338" y="545" font-family="Liberation Sans, Arial, Helvetica, sans-serif" font-size="14" text-anchor="middle">0.25</text>
  <line x1="566" y1="514" x2="566" y2="526" stroke="black" stroke-width="1.5"/>
  <text x="566" y="545" font-family="Liberation Sans, Arial, Helvetica, sans-serif" font-size="14" text-anchor="middle">0.5</text>

  <!-- Landauer tolerance buffer: explicit hatch lines clipped to polygon (ODG-safe) -->
  <g clip-path="url(#landauer-clip)">
    <line x1="60" y1="340" x2="180" y2="220" stroke="black" stroke-width="0.4"/>
    <line x1="68" y1="340" x2="188" y2="220" stroke="black" stroke-width="0.4"/>
    <line x1="76" y1="340" x2="196" y2="220" stroke="black" stroke-width="0.4"/>
    <line x1="84" y1="340" x2="204" y2="220" stroke="black" stroke-width="0.4"/>
    <line x1="92" y1="340" x2="212" y2="220" stroke="black" stroke-width="0.4"/>
    <line x1="100" y1="340" x2="220" y2="220" stroke="black" stroke-width="0.4"/>
    <line x1="108" y1="340" x2="228" y2="220" stroke="black" stroke-width="0.4"/>
    <line x1="116" y1="340" x2="236" y2="220" stroke="black" stroke-width="0.4"/>
    <line x1="124" y1="340" x2="244" y2="220" stroke="black" stroke-width="0.4"/>
    <line x1="132" y1="340" x2="252" y2="220" stroke="black" stroke-width="0.4"/>
    <line x1="140" y1="340" x2="260" y2="220" stroke="black" stroke-width="0.4"/>
    <line x1="148" y1="340" x2="268" y2="220" stroke="black" stroke-width="0.4"/>
    <line x1="156" y1="340" x2="276" y2="220" stroke="black" stroke-width="0.4"/>
    <line x1="164" y1="340" x2="284" y2="220" stroke="black" stroke-width="0.4"/>
    <line x1="172" y1="340" x2="292" y2="220" stroke="black" stroke-width="0.4"/>
    <line x1="180" y1="340" x2="300" y2="220" stroke="black" stroke-width="0.4"/>
    <line x1="188" y1="340" x2="308" y2="220" stroke="black" stroke-width="0.4"/>
    <line x1="196" y1="340" x2="316" y2="220" stroke="black" stroke-width="0.4"/>
    <line x1="204" y1="340" x2="324" y2="220" stroke="black" stroke-width="0.4"/>
    <line x1="212" y1="340" x2="332" y2="220" stroke="black" stroke-width="0.4"/>
    <line x1="220" y1="340" x2="340" y2="220" stroke="black" stroke-width="0.4"/>
    <line x1="228" y1="340" x2="348" y2="220" stroke="black" stroke-width="0.4"/>
    <line x1="236" y1="340" x2="356" y2="220" stroke="black" stroke-width="0.4"/>
    <line x1="244" y1="340" x2="364" y2="220" stroke="black" stroke-width="0.4"/>
    <line x1="252" y1="340" x2="372" y2="220" stroke="black" stroke-width="0.4"/>
    <line x1="260" y1="340" x2="380" y2="220" stroke="black" stroke-width="0.4"/>
    <line x1="268" y1="340" x2="388" y2="220" stroke="black" stroke-width="0.4"/>
    <line x1="276" y1="340" x2="396" y2="220" stroke="black" stroke-width="0.4"/>
    <line x1="284" y1="340" x2="404" y2="220" stroke="black" stroke-width="0.4"/>
    <line x1="292" y1="340" x2="412" y2="220" stroke="black" stroke-width="0.4"/>
    <line x1="300" y1="340" x2="420" y2="220" stroke="black" stroke-width="0.4"/>
    <line x1="308" y1="340" x2="428" y2="220" stroke="black" stroke-width="0.4"/>
    <line x1="316" y1="340" x2="436" y2="220" stroke="black" stroke-width="0.4"/>
    <line x1="324" y1="340" x2="444" y2="220" stroke="black" stroke-width="0.4"/>
    <line x1="332" y1="340" x2="452" y2="220" stroke="black" stroke-width="0.4"/>
    <line x1="340" y1="340" x2="460" y2="220" stroke="black" stroke-width="0.4"/>
    <line x1="348" y1="340" x2="468" y2="220" stroke="black" stroke-width="0.4"/>
    <line x1="356" y1="340" x2="476" y2="220" stroke="black" stroke-width="0.4"/>
    <line x1="364" y1="340" x2="484" y2="220" stroke="black" stroke-width="0.4"/>
    <line x1="372" y1="340" x2="492" y2="220" stroke="black" stroke-width="0.4"/>
    <line x1="380" y1="340" x2="500" y2="220" stroke="black" stroke-width="0.4"/>
    <line x1="388" y1="340" x2="508" y2="220" stroke="black" stroke-width="0.4"/>
    <line x1="396" y1="340" x2="516" y2="220" stroke="black" stroke-width="0.4"/>
    <line x1="404" y1="340" x2="524" y2="220" stroke="black" stroke-width="0.4"/>
    <line x1="412" y1="340" x2="532" y2="220" stroke="black" stroke-width="0.4"/>
    <line x1="420" y1="340" x2="540" y2="220" stroke="black" stroke-width="0.4"/>
    <line x1="428" y1="340" x2="548" y2="220" stroke="black" stroke-width="0.4"/>
    <line x1="436" y1="340" x2="556" y2="220" stroke="black" stroke-width="0.4"/>
    <line x1="444" y1="340" x2="564" y2="220" stroke="black" stroke-width="0.4"/>
    <line x1="452" y1="340" x2="572" y2="220" stroke="black" stroke-width="0.4"/>
    <line x1="460" y1="340" x2="580" y2="220" stroke="black" stroke-width="0.4"/>
    <line x1="468" y1="340" x2="588" y2="220" stroke="black" stroke-width="0.4"/>
    <line x1="476" y1="340" x2="596" y2="220" stroke="black" stroke-width="0.4"/>
    <line x1="484" y1="340" x2="604" y2="220" stroke="black" stroke-width="0.4"/>
    <line x1="492" y1="340" x2="612" y2="220" stroke="black" stroke-width="0.4"/>
    <line x1="500" y1="340" x2="620" y2="220" stroke="black" stroke-width="0.4"/>
    <line x1="508" y1="340" x2="628" y2="220" stroke="black" stroke-width="0.4"/>
    <line x1="516" y1="340" x2="636" y2="220" stroke="black" stroke-width="0.4"/>
    <line x1="524" y1="340" x2="644" y2="220" stroke="black" stroke-width="0.4"/>
    <line x1="532" y1="340" x2="652" y2="220" stroke="black" stroke-width="0.4"/>
    <line x1="540" y1="340" x2="660" y2="220" stroke="black" stroke-width="0.4"/>
    <line x1="548" y1="340" x2="668" y2="220" stroke="black" stroke-width="0.4"/>
    <line x1="556" y1="340" x2="676" y2="220" stroke="black" stroke-width="0.4"/>
    <line x1="564" y1="340" x2="684" y2="220" stroke="black" stroke-width="0.4"/>
    <line x1="572" y1="340" x2="692" y2="220" stroke="black" stroke-width="0.4"/>
    <line x1="580" y1="340" x2="700" y2="220" stroke="black" stroke-width="0.4"/>
    <line x1="588" y1="340" x2="708" y2="220" stroke="black" stroke-width="0.4"/>
    <line x1="596" y1="340" x2="716" y2="220" stroke="black" stroke-width="0.4"/>
    <line x1="604" y1="340" x2="724" y2="220" stroke="black" stroke-width="0.4"/>
    <line x1="612" y1="340" x2="732" y2="220" stroke="black" stroke-width="0.4"/>
  </g>

  <!-- Oobleck dynamic threshold curve 1502 -->
  <line x1="110" y1="310" x2="650" y2="194" stroke="black" stroke-width="1.5"/>

  <!-- Hard turbulence barrier σ_thr = 0.5 -->
  <line x1="566" y1="50" x2="566" y2="520" stroke="black" stroke-width="2.5" stroke-dasharray="12,6"/>
  <text x="566" y="42" font-family="Liberation Sans, Arial, Helvetica, sans-serif" font-size="14" text-anchor="middle">σ_thr = 0.5</text>

  <!-- 1502 label for curve -->
  <text x="380" y="248" font-family="Liberation Sans, Arial, Helvetica, sans-serif" font-size="14" font-style="italic">1502</text>
  <text x="290" y="270" font-family="Liberation Sans, Arial, Helvetica, sans-serif" font-size="13">κ_req(σ) = κ_base + λσ</text>

  <!-- Landauer buffer label -->
  <line x1="145" y1="320" x2="175" y2="345" stroke="black" stroke-width="1"/>
  <text x="105" y="365" font-family="Liberation Sans, Arial, Helvetica, sans-serif" font-size="12">Landauer buffer</text>
  <text x="115" y="380" font-family="Liberation Sans, Arial, Helvetica, sans-serif" font-size="12">(ε_L = 0.05)</text>

  <!-- ADMISSIBLE region label -->
  <text x="310" y="160" font-family="Liberation Sans, Arial, Helvetica, sans-serif" font-size="18" font-weight="bold" text-anchor="middle">ADMISSIBLE</text>
  <text x="310" y="182" font-family="Liberation Sans, Arial, Helvetica, sans-serif" font-size="15" text-anchor="middle">(EXECUTE)</text>

  <!-- INADMISSIBLE region label -->
  <text x="280" y="430" font-family="Liberation Sans, Arial, Helvetica, sans-serif" font-size="18" font-weight="bold" text-anchor="middle">INADMISSIBLE</text>
  <text x="280" y="452" font-family="Liberation Sans, Arial, Helvetica, sans-serif" font-size="15" text-anchor="middle">(RE_ENCODE)</text>

  <!-- UNSTABLE region label -->
  <text x="630" y="320" font-family="Liberation Sans, Arial, Helvetica, sans-serif" font-size="16" font-weight="bold" text-anchor="middle">UNSTABLE</text>
  <text x="630" y="342" font-family="Liberation Sans, Arial, Helvetica, sans-serif" font-size="14" text-anchor="middle">σ > σ_thr</text>

  <!-- Operating point 1: Expert Human (high κ, low σ) -->
  <circle cx="200" cy="105" r="7" fill="black"/>
  <text x="215" y="95" font-family="Liberation Sans, Arial, Helvetica, sans-serif" font-size="13">Expert Human</text>
  <text x="215" y="113" font-family="Liberation Sans, Arial, Helvetica, sans-serif" font-size="12">Encoding</text>

  <!-- Operating point 2: Direct LM (near boundary, hallucination risk) -->
  <circle cx="370" cy="256" r="7" fill="black"/>
  <text x="385" y="285" font-family="Liberation Sans, Arial, Helvetica, sans-serif" font-size="13">Direct LM</text>
  <text x="385" y="300" font-family="Liberation Sans, Arial, Helvetica, sans-serif" font-size="12">(hallucination risk)</text>

  <!-- Operating point 3: VQE (near hard barrier, barren plateau risk) -->
  <circle cx="530" cy="230" r="7" fill="black"/>
  <text x="435" y="210" font-family="Liberation Sans, Arial, Helvetica, sans-serif" font-size="13">VQE</text>
  <text x="435" y="225" font-family="Liberation Sans, Arial, Helvetica, sans-serif" font-size="12">(barren plateau risk)</text>

  <!-- Representation search trajectory: curved arrow from inadmissible to admissible -->
  <path d="M320,420 C300,380 240,340 210,200" fill="none" stroke="black" stroke-width="1.5" stroke-dasharray="6,3"/>
  <polygon points="207,207 213,207 210,195" fill="black"/>
  <text x="245" y="395" font-family="Liberation Sans, Arial, Helvetica, sans-serif" font-size="12" font-style="italic">Search</text>
  <text x="245" y="410" font-family="Liberation Sans, Arial, Helvetica, sans-serif" font-size="12" font-style="italic">trajectory</text>

  <!-- 1500 reference -->
  <text x="645" y="88" font-family="Liberation Sans, Arial, Helvetica, sans-serif" font-size="14" font-style="italic">1500</text>

  <!-- Legend -->
  <line x1="110" y1="615" x2="155" y2="615" stroke="black" stroke-width="1.5"/>
  <text x="165" y="620" font-family="Liberation Sans, Arial, Helvetica, sans-serif" font-size="12">Oobleck threshold κ_req(σ)</text>

  <line x1="110" y1="638" x2="155" y2="638" stroke="black" stroke-width="2.5" stroke-dasharray="12,6"/>
  <text x="165" y="643" font-family="Liberation Sans, Arial, Helvetica, sans-serif" font-size="12">Hard turbulence barrier σ_thr</text>

  <!-- Legend swatch: explicit hatch in small box (ODG-safe) -->
  <rect x="110" y="653" width="45" height="14" fill="none" stroke="black" stroke-width="0.5"/>
  <g clip-path="url(#legend-clip)">
    <line x1="108" y1="670" x2="122" y2="650" stroke="black" stroke-width="0.4"/>
    <line x1="116" y1="670" x2="130" y2="650" stroke="black" stroke-width="0.4"/>
    <line x1="124" y1="670" x2="138" y2="650" stroke="black" stroke-width="0.4"/>
    <line x1="132" y1="670" x2="146" y2="650" stroke="black" stroke-width="0.4"/>
    <line x1="140" y1="670" x2="154" y2="650" stroke="black" stroke-width="0.4"/>
    <line x1="148" y1="670" x2="162" y2="650" stroke="black" stroke-width="0.4"/>
  </g>
  <text x="165" y="665" font-family="Liberation Sans, Arial, Helvetica, sans-serif" font-size="12">Landauer tolerance buffer [κ_req − ε_L, κ_req)</text>

  <circle cx="120" cy="685" r="5" fill="black"/>
  <text x="165" y="690" font-family="Liberation Sans, Arial, Helvetica, sans-serif" font-size="12">Representative operating point</text>

  <!-- Certificate property annotation -->
  <text x="395" y="720" font-family="Liberation Sans, Arial, Helvetica, sans-serif" font-size="14" font-style="italic" text-anchor="middle">Determines admissibility of the structured compatibility certificate — consumed by Gate 3 (Admissibility Gate)</text>
</svg>
